<svg width="238" height="227" viewBox="0 0 238 227" fill="none" xmlns="http://www.w3.org/2000/svg">
<path d="M119 227C184.722 227 238 176.184 238 113.5C238 50.8157 184.722 0 119 0C53.2781 0 0 50.8157 0 113.5C0 176.184 53.2781 227 119 227Z" fill="#1BF308"/>
<path d="M119 207.528C174.04 207.528 218.659 165.43 218.659 113.5C218.659 61.5696 174.04 19.4718 119 19.4718C63.9598 19.4718 19.3409 61.5696 19.3409 113.5C19.3409 165.43 63.9598 207.528 119 207.528Z" fill="url(#paint0_linear_5_12)"/>
<path d="M97.0847 140.282V161.411H92.5202L83.6197 147.247V161.411H79.0547V140.282H83.6197L92.5353 154.46V140.282H97.0847ZM115.921 158.015V161.411H104.129V158.015H115.921ZM105.62 140.282V161.411H101.056V140.282H105.62ZM114.384 148.887V152.196H104.129V148.887H114.384ZM115.905 140.282V143.692H104.129V140.282H115.905ZM123.924 158.059L128.336 140.282H130.801L131.364 143.242L126.663 161.411H124.015L123.924 158.059ZM121.657 140.282L125.308 158.059L125.004 161.411H122.053L117.138 140.282H121.657ZM135.244 157.986L138.85 140.282H143.368L138.469 161.411H135.518L135.244 157.986ZM132.186 140.282L136.628 158.131L136.507 161.411H133.859L129.128 143.228L129.736 140.282H132.186ZM157.381 155.882C157.381 155.505 157.321 155.166 157.199 154.866C157.088 154.556 156.874 154.276 156.56 154.024C156.246 153.763 155.805 153.507 155.236 153.255C154.668 153.004 153.933 152.742 153.03 152.472C152.026 152.162 151.073 151.814 150.17 151.427C149.277 151.04 148.486 150.59 147.796 150.077C147.117 149.555 146.579 148.95 146.184 148.263C145.798 147.576 145.605 146.778 145.605 145.869C145.605 144.988 145.808 144.19 146.214 143.474C146.62 142.749 147.188 142.13 147.918 141.617C148.648 141.095 149.51 140.693 150.505 140.413C151.509 140.132 152.609 139.991 153.806 139.991C155.439 139.991 156.865 140.272 158.081 140.833C159.299 141.394 160.242 142.163 160.912 143.141C161.591 144.118 161.931 145.235 161.931 146.493H157.397C157.397 145.873 157.26 145.332 156.986 144.868C156.722 144.394 156.317 144.021 155.769 143.75C155.231 143.479 154.552 143.344 153.73 143.344C152.939 143.344 152.28 143.46 151.752 143.692C151.225 143.914 150.829 144.219 150.565 144.606C150.302 144.983 150.17 145.409 150.17 145.883C150.17 146.241 150.261 146.565 150.443 146.856C150.636 147.146 150.92 147.417 151.295 147.668C151.671 147.92 152.133 148.157 152.68 148.379C153.228 148.602 153.862 148.819 154.582 149.032C155.789 149.38 156.849 149.772 157.762 150.208C158.685 150.643 159.456 151.132 160.075 151.673C160.694 152.215 161.16 152.829 161.475 153.517C161.789 154.203 161.946 154.982 161.946 155.853C161.946 156.772 161.758 157.594 161.383 158.32C161.008 159.046 160.465 159.66 159.755 160.163C159.045 160.666 158.198 161.048 157.214 161.309C156.231 161.571 155.13 161.701 153.912 161.701C152.817 161.701 151.737 161.566 150.672 161.295C149.607 161.014 148.638 160.594 147.766 160.032C146.903 159.471 146.214 158.755 145.696 157.884C145.179 157.014 144.921 155.983 144.921 154.794H149.5C149.5 155.451 149.607 156.007 149.82 156.462C150.033 156.917 150.332 157.285 150.717 157.565C151.113 157.846 151.58 158.049 152.117 158.175C152.665 158.3 153.263 158.364 153.912 158.364C154.704 158.364 155.353 158.257 155.86 158.044C156.377 157.831 156.758 157.536 157.001 157.159C157.255 156.782 157.381 156.356 157.381 155.882Z" fill="black"/>
<path d="M77.2898 113.351C77.2898 112.974 77.2291 112.636 77.1071 112.336C76.9959 112.026 76.7826 111.745 76.4684 111.494C76.1541 111.233 75.7124 110.976 75.1446 110.725C74.5767 110.473 73.8412 110.212 72.9387 109.941C71.9345 109.632 70.9809 109.283 70.0778 108.896C69.1854 108.509 68.3941 108.059 67.7043 107.547C67.0252 107.024 66.4874 106.419 66.092 105.733C65.7062 105.046 65.5134 104.248 65.5134 103.338C65.5134 102.458 65.7164 101.66 66.1221 100.944C66.5277 100.218 67.0961 99.5992 67.8262 99.0863C68.5563 98.5641 69.4186 98.1624 70.4125 97.8821C71.4172 97.6013 72.5174 97.4609 73.7144 97.4609C75.3477 97.4609 76.7724 97.7417 77.9898 98.3028C79.2072 98.8639 80.1506 99.633 80.82 100.61C81.4997 101.587 81.8392 102.704 81.8392 103.962H77.3054C77.3054 103.343 77.1684 102.801 76.8944 102.337C76.6306 101.863 76.225 101.491 75.677 101.219C75.1397 100.949 74.4601 100.813 73.6381 100.813C72.8473 100.813 72.1881 100.929 71.6605 101.162C71.133 101.384 70.7375 101.689 70.4738 102.076C70.21 102.453 70.0778 102.879 70.0778 103.353C70.0778 103.711 70.1691 104.035 70.3518 104.325C70.5447 104.615 70.8289 104.886 71.2039 105.138C71.5794 105.389 72.0409 105.626 72.5884 105.849C73.1364 106.072 73.7703 106.289 74.4902 106.502C75.6974 106.85 76.7574 107.242 77.6702 107.677C78.5932 108.112 79.3641 108.601 79.983 109.143C80.6019 109.685 81.0683 110.299 81.3825 110.986C81.6974 111.673 81.8542 112.452 81.8542 113.322C81.8542 114.241 81.6667 115.064 81.2917 115.789C80.9162 116.515 80.3736 117.129 79.6634 117.632C78.9537 118.135 78.1064 118.518 77.1227 118.779C76.1385 119.04 75.0382 119.17 73.8208 119.17C72.7254 119.17 71.645 119.035 70.5801 118.764C69.5153 118.484 68.5467 118.063 67.6742 117.502C66.8119 116.941 66.1221 116.225 65.6047 115.354C65.0873 114.483 64.8289 113.453 64.8289 112.263H69.4084C69.4084 112.921 69.5153 113.477 69.7281 113.932C69.9413 114.386 70.2406 114.754 70.6258 115.035C71.0212 115.315 71.4881 115.518 72.0253 115.644C72.5733 115.77 73.1718 115.833 73.8208 115.833C74.6122 115.833 75.2612 115.726 75.7683 115.514C76.2857 115.301 76.6661 115.005 76.9094 114.628C77.163 114.251 77.2898 113.825 77.2898 113.351ZM99.8235 115.485V118.88H88.0315V115.485H99.8235ZM89.5229 97.7514V118.88H84.9584V97.7514H89.5229ZM98.2864 106.357V109.666H88.0315V106.357H98.2864ZM99.8079 97.7514V101.162H88.0315V97.7514H99.8079ZM111.493 101.364L105.468 118.88H100.614L108.846 97.7514H111.935L111.493 101.364ZM116.499 118.88L110.459 101.364L109.972 97.7514H113.091L121.368 118.88H116.499ZM116.225 111.015V114.425H104.525V111.015H116.225ZM131.44 97.7514V118.88H126.891V97.7514H131.44ZM138.256 97.7514V101.162H120.181V97.7514H138.256ZM155.723 115.485V118.88H143.931V115.485H155.723ZM145.423 97.7514V118.88H140.858V97.7514H145.423ZM154.186 106.357V109.666H143.931V106.357H154.186ZM155.708 97.7514V101.162H143.931V97.7514H155.708ZM158.386 97.7514H166.647C168.341 97.7514 169.797 97.9933 171.014 98.477C172.242 98.9607 173.185 99.6766 173.844 100.625C174.503 101.572 174.833 102.738 174.833 104.122C174.833 105.254 174.63 106.226 174.225 107.039C173.829 107.842 173.266 108.514 172.535 109.056C171.816 109.588 170.968 110.014 169.995 110.333L168.55 111.058H161.368L161.338 107.663H166.678C167.479 107.663 168.143 107.527 168.671 107.256C169.199 106.986 169.594 106.608 169.858 106.124C170.132 105.641 170.269 105.079 170.269 104.441C170.269 103.764 170.137 103.178 169.873 102.685C169.609 102.192 169.209 101.814 168.671 101.554C168.133 101.292 167.459 101.162 166.647 101.162H162.95V118.88H158.386V97.7514ZM170.771 118.88L165.719 109.462L170.542 109.433L175.655 118.677V118.88H170.771Z" fill="black"/>
<path d="M72.0109 70.8209C72.0109 70.4438 71.9502 70.1051 71.8282 69.8053C71.717 69.4953 71.5037 69.215 71.1894 68.9634C70.8751 68.7021 70.4335 68.4459 69.8657 68.1943C69.2978 67.9427 68.5623 67.6813 67.6597 67.4108C66.6551 67.1013 65.702 66.7529 64.7989 66.366C63.9065 65.9786 63.1152 65.5287 62.4253 65.0163C61.7457 64.4936 61.2085 63.889 60.8125 63.2023C60.4273 62.5152 60.2344 61.7173 60.2344 60.8078C60.2344 59.9275 60.4375 59.1291 60.8431 58.4133C61.2488 57.6877 61.8166 57.0687 62.5473 56.5558C63.2774 56.0336 64.1397 55.6319 65.1336 55.3516C66.1377 55.0708 67.2385 54.9304 68.4355 54.9304C70.0687 54.9304 71.4935 55.2112 72.7109 55.7723C73.9278 56.3334 74.8712 57.1025 75.5406 58.0797C76.2202 59.0569 76.5603 60.1739 76.5603 61.4319H72.0259C72.0259 60.8124 71.8895 60.2708 71.6155 59.8065C71.3517 59.3326 70.9461 58.96 70.3981 58.689C69.8608 58.4184 69.1812 58.2826 68.3592 58.2826C67.5684 58.2826 66.9086 58.3989 66.3816 58.6311C65.854 58.8534 65.4581 59.1583 65.1948 59.5452C64.931 59.9223 64.7989 60.3482 64.7989 60.8222C64.7989 61.1803 64.8902 61.5042 65.0729 61.7947C65.2657 62.0847 65.5494 62.3558 65.9249 62.6074C66.3005 62.859 66.762 63.0957 67.3094 63.3181C67.8574 63.541 68.4914 63.7583 69.2113 63.9715C70.4185 64.3194 71.4785 64.7114 72.3912 65.1469C73.3142 65.582 74.0852 66.0708 74.7041 66.6124C75.3225 67.1541 75.7893 67.7685 76.1036 68.4556C76.4184 69.1422 76.5753 69.9211 76.5753 70.7917C76.5753 71.711 76.3878 72.5334 76.0123 73.259C75.6373 73.9846 75.0947 74.599 74.3844 75.1016C73.6742 75.6048 72.8275 75.9871 71.8438 76.2484C70.8596 76.5098 69.7593 76.6399 68.5419 76.6399C67.4464 76.6399 66.366 76.5046 65.3012 76.2336C64.2358 75.9533 63.2672 75.5326 62.3952 74.9715C61.533 74.4104 60.8431 73.694 60.3258 72.8234C59.8084 71.9528 59.55 70.9224 59.55 69.7325H64.1295C64.1295 70.3905 64.2358 70.9465 64.4491 71.4015C64.6619 71.856 64.9611 72.2239 65.3469 72.5042C65.7423 72.785 66.2092 72.9879 66.7464 73.114C67.2944 73.2395 67.8929 73.3025 68.5419 73.3025C69.3332 73.3025 69.9822 73.196 70.4894 72.9833C71.0068 72.7701 71.3871 72.475 71.6305 72.0979C71.8841 71.7207 72.0109 71.2949 72.0109 70.8209ZM84.533 55.2209V76.3499H79.9836V55.2209H84.533ZM106.838 55.2209V76.3499H102.273L93.3728 62.1862V76.3499H88.8084V55.2209H93.3728L102.289 69.399V55.2209H106.838ZM128.367 65.3063V73.6797C128.023 74.0763 127.49 74.5067 126.77 74.9715C126.049 75.426 125.121 75.818 123.985 76.147C122.849 76.4754 121.475 76.6399 119.862 76.6399C118.432 76.6399 117.128 76.4175 115.952 75.9727C114.775 75.5177 113.761 74.8552 112.909 73.9846C112.067 73.114 111.418 72.0497 110.961 70.7917C110.505 69.5245 110.277 68.078 110.277 66.4531V65.1321C110.277 63.5072 110.495 62.0607 110.931 60.7935C111.377 59.5257 112.011 58.4568 112.833 57.5862C113.654 56.7157 114.633 56.0526 115.769 55.5981C116.905 55.1436 118.168 54.916 119.558 54.916C121.485 54.916 123.068 55.2158 124.305 55.8159C125.542 56.4056 126.485 57.2281 127.135 58.2826C127.794 59.3274 128.2 60.527 128.352 61.8818H123.924C123.813 61.166 123.6 60.5419 123.286 60.0095C122.971 59.4776 122.52 59.0615 121.931 58.7617C121.353 58.4615 120.603 58.3118 119.68 58.3118C118.919 58.3118 118.239 58.4615 117.641 58.7617C117.053 59.0518 116.556 59.4822 116.149 60.053C115.744 60.6238 115.434 61.33 115.222 62.1719C115.008 63.0138 114.902 63.9909 114.902 65.1034V66.4531C114.902 67.5558 115.014 68.533 115.237 69.3841C115.46 70.226 115.789 70.9372 116.226 71.5173C116.672 72.0881 117.22 72.5185 117.869 72.8091C118.518 73.0991 119.273 73.2441 120.136 73.2441C120.856 73.2441 121.455 73.1862 121.931 73.0704C122.418 72.9541 122.809 72.8137 123.103 72.6492C123.407 72.475 123.64 72.311 123.802 72.1558V68.4121H119.634V65.3063H128.367ZM146.291 72.9541V76.3499H135.138V72.9541H146.291ZM136.614 55.2209V76.3499H132.049V55.2209H136.614ZM163.773 72.9541V76.3499H151.981V72.9541H163.773ZM153.472 55.2209V76.3499H148.907V55.2209H153.472ZM162.236 63.8264V67.1351H151.981V63.8264H162.236ZM163.757 55.2209V58.6311H151.981V55.2209H163.757Z" fill="black"/>
<defs>
<linearGradient id="paint0_linear_5_12" x1="119" y1="19.4718" x2="119" y2="207.528" gradientUnits="userSpaceOnUse">
<stop stop-color="#2581D7"/>
<stop offset="0.5" stop-color="#7000FF" stop-opacity="0.9"/>
<stop offset="1" stop-color="#00A3FF" stop-opacity="0.62"/>
</linearGradient>
</defs>
</svg>
